# xmcd
# 
# Track frame offsets:
#     150
#     18525
#     43680
#     65775
#     85075
#     105875
#     118425
#     144675
#     175050
#     201075
#     223075
# 
# Disc length: 3323
# 
# Revision: 3
# Processed by: cddbd v1.5.2PL0 Copyright (c) Steve Scherf et al.
# Submitted via: BonkEnc v1.0.6
# 
DISCID=a20cf90b
DTITLE=Joja Wendt - Solo Piano
DYEAR=1994
DGENRE=Jazz
TTITLE0=Homeless
TTITLE1=Death Ray Boogie
TTITLE2=Georgia
TTITLE3=Early Bird
TTITLE4=Honky Tonk Train Blues
TTITLE5=Just 4 U
TTITLE6=Power Train
TTITLE7=In The Backroom
TTITLE8=Outskirts
TTITLE9=St. Louis Blues
TTITLE10=Memories Of Tomorrow
EXTD=
EXTT0=
EXTT1=
EXTT2=
EXTT3=
EXTT4=
EXTT5=
EXTT6=
EXTT7=
EXTT8=
EXTT9=
EXTT10=
PLAYORDER=
